<svg width="7" height="138" viewBox="0 0 7 138" fill="none" xmlns="http://www.w3.org/2000/svg">
<path d="M1.08398 0.46875V1.63477H2.86523V7.83984H1.08398V9H6.11133V7.83984H4.28906V1.63477H6.11133V0.46875H1.08398ZM6.38086 25V16.4688H4.96289L4.95117 22.3164L2.19727 16.4688H0.767578V25H2.19141L2.19727 19.1289L4.96875 25H6.38086ZM6.92578 33.6348V32.4688H0.28125V33.6348H2.89453V41H4.29492V33.6348H6.92578ZM5.88867 53.1738V52.0371H2.36133V49.6348H6.45117V48.4688H0.949219V57H6.48047V55.8398H2.36133V53.1738H5.88867ZM3.73828 69.6895L5.37305 73H6.87891V72.9238L5.05664 69.3555C5.29102 69.25 5.50391 69.125 5.69531 68.9805C5.88672 68.8359 6.05078 68.668 6.1875 68.4766C6.32422 68.2852 6.42969 68.0703 6.50391 67.832C6.58203 67.5938 6.62109 67.3281 6.62109 67.0352C6.62109 66.6094 6.54688 66.2383 6.39844 65.9219C6.25 65.6016 6.04297 65.334 5.77734 65.1191C5.50781 64.9082 5.1875 64.748 4.81641 64.6387C4.44531 64.5293 4.03906 64.4727 3.59766 64.4688H0.890625V73H2.29688V69.6895H3.73828ZM2.29688 68.541V65.6172H3.59766C3.83984 65.6211 4.05859 65.6543 4.25391 65.7168C4.44922 65.7754 4.61523 65.8633 4.75195 65.9805C4.90039 66.1055 5.01172 66.2617 5.08594 66.4492C5.16406 66.6328 5.20312 66.8477 5.20312 67.0938C5.20312 67.3125 5.16797 67.5078 5.09766 67.6797C5.02734 67.8516 4.92969 67.9961 4.80469 68.1133C4.66406 68.25 4.49219 68.3555 4.28906 68.4297C4.08984 68.5 3.86523 68.5371 3.61523 68.541H2.29688ZM5.88867 85.1738V84.0371H2.36133V81.6348H6.45117V80.4688H0.949219V89H6.48047V87.8398H2.36133V85.1738H5.88867ZM5.32031 102.803C5.32031 102.99 5.2793 103.156 5.19727 103.301C5.11914 103.445 5.01367 103.566 4.88086 103.664C4.74414 103.766 4.58203 103.842 4.39453 103.893C4.21094 103.943 4.01172 103.969 3.79688 103.969C3.54297 103.969 3.30859 103.938 3.09375 103.875C2.88281 103.812 2.69922 103.717 2.54297 103.588C2.38281 103.463 2.25586 103.305 2.16211 103.113C2.07227 102.918 2.01758 102.689 1.99805 102.428H0.591797C0.595703 102.838 0.677734 103.201 0.837891 103.518C1.00195 103.834 1.22266 104.109 1.5 104.344C1.80078 104.594 2.1543 104.785 2.56055 104.918C2.9668 105.047 3.37891 105.111 3.79688 105.111C4.19141 105.111 4.56641 105.062 4.92188 104.965C5.27734 104.863 5.58984 104.713 5.85938 104.514C6.125 104.322 6.33594 104.082 6.49219 103.793C6.65234 103.504 6.73242 103.17 6.73242 102.791C6.73242 102.381 6.64062 102.02 6.45703 101.707C6.27734 101.391 6.03711 101.119 5.73633 100.893C5.49414 100.713 5.22852 100.561 4.93945 100.436C4.6543 100.307 4.36133 100.199 4.06055 100.113C3.82227 100.043 3.59375 99.9668 3.375 99.8848C3.16016 99.8027 2.96875 99.707 2.80078 99.5977C2.63672 99.4883 2.50586 99.3613 2.4082 99.2168C2.31055 99.0684 2.25977 98.8965 2.25586 98.7012C2.25586 98.5176 2.29297 98.3516 2.36719 98.2031C2.44141 98.0547 2.54492 97.9277 2.67773 97.8223C2.81055 97.7207 2.9668 97.6426 3.14648 97.5879C3.33008 97.5293 3.5293 97.5 3.74414 97.5C3.99023 97.5 4.20703 97.5371 4.39453 97.6113C4.58594 97.6816 4.74805 97.7793 4.88086 97.9043C5.00977 98.0332 5.10938 98.1875 5.17969 98.3672C5.25391 98.543 5.30078 98.7383 5.32031 98.9531H6.71484C6.71484 98.5664 6.63672 98.2148 6.48047 97.8984C6.32812 97.5781 6.11914 97.3027 5.85352 97.0723C5.58789 96.8457 5.27539 96.6699 4.91602 96.5449C4.56055 96.416 4.17578 96.3516 3.76172 96.3516C3.37109 96.3516 2.99805 96.4062 2.64258 96.5156C2.29102 96.6211 1.98242 96.7754 1.7168 96.9785C1.45117 97.1855 1.24023 97.4355 1.08398 97.7285C0.927734 98.0176 0.849609 98.3438 0.849609 98.707C0.849609 99.043 0.916016 99.3457 1.04883 99.6152C1.18555 99.8809 1.37305 100.119 1.61133 100.33C1.84961 100.537 2.13672 100.725 2.47266 100.893C2.8125 101.057 3.18359 101.195 3.58594 101.309C3.84766 101.383 4.08398 101.467 4.29492 101.561C4.50977 101.65 4.69531 101.752 4.85156 101.865C5 101.986 5.11523 102.123 5.19727 102.275C5.2793 102.428 5.32031 102.604 5.32031 102.803ZM6.92578 113.635V112.469H0.28125V113.635H2.89453V121H4.29492V113.635H6.92578ZM5.32031 134.803C5.32031 134.99 5.2793 135.156 5.19727 135.301C5.11914 135.445 5.01367 135.566 4.88086 135.664C4.74414 135.766 4.58203 135.842 4.39453 135.893C4.21094 135.943 4.01172 135.969 3.79688 135.969C3.54297 135.969 3.30859 135.938 3.09375 135.875C2.88281 135.812 2.69922 135.717 2.54297 135.588C2.38281 135.463 2.25586 135.305 2.16211 135.113C2.07227 134.918 2.01758 134.689 1.99805 134.428H0.591797C0.595703 134.838 0.677734 135.201 0.837891 135.518C1.00195 135.834 1.22266 136.109 1.5 136.344C1.80078 136.594 2.1543 136.785 2.56055 136.918C2.9668 137.047 3.37891 137.111 3.79688 137.111C4.19141 137.111 4.56641 137.062 4.92188 136.965C5.27734 136.863 5.58984 136.713 5.85938 136.514C6.125 136.322 6.33594 136.082 6.49219 135.793C6.65234 135.504 6.73242 135.17 6.73242 134.791C6.73242 134.381 6.64062 134.02 6.45703 133.707C6.27734 133.391 6.03711 133.119 5.73633 132.893C5.49414 132.713 5.22852 132.561 4.93945 132.436C4.6543 132.307 4.36133 132.199 4.06055 132.113C3.82227 132.043 3.59375 131.967 3.375 131.885C3.16016 131.803 2.96875 131.707 2.80078 131.598C2.63672 131.488 2.50586 131.361 2.4082 131.217C2.31055 131.068 2.25977 130.896 2.25586 130.701C2.25586 130.518 2.29297 130.352 2.36719 130.203C2.44141 130.055 2.54492 129.928 2.67773 129.822C2.81055 129.721 2.9668 129.643 3.14648 129.588C3.33008 129.529 3.5293 129.5 3.74414 129.5C3.99023 129.5 4.20703 129.537 4.39453 129.611C4.58594 129.682 4.74805 129.779 4.88086 129.904C5.00977 130.033 5.10938 130.188 5.17969 130.367C5.25391 130.543 5.30078 130.738 5.32031 130.953H6.71484C6.71484 130.566 6.63672 130.215 6.48047 129.898C6.32812 129.578 6.11914 129.303 5.85352 129.072C5.58789 128.846 5.27539 128.67 4.91602 128.545C4.56055 128.416 4.17578 128.352 3.76172 128.352C3.37109 128.352 2.99805 128.406 2.64258 128.516C2.29102 128.621 1.98242 128.775 1.7168 128.979C1.45117 129.186 1.24023 129.436 1.08398 129.729C0.927734 130.018 0.849609 130.344 0.849609 130.707C0.849609 131.043 0.916016 131.346 1.04883 131.615C1.18555 131.881 1.37305 132.119 1.61133 132.33C1.84961 132.537 2.13672 132.725 2.47266 132.893C2.8125 133.057 3.18359 133.195 3.58594 133.309C3.84766 133.383 4.08398 133.467 4.29492 133.561C4.50977 133.65 4.69531 133.752 4.85156 133.865C5 133.986 5.11523 134.123 5.19727 134.275C5.2793 134.428 5.32031 134.604 5.32031 134.803Z" fill="#001AFF"/>
</svg>
